<svg width="472" height="497" fill="none" xmlns="http://www.w3.org/2000/svg"><path d="M125.265 379.418s-13.838-2.177-22.652 2.071c0 0 21.597 16.233 18.323 20.072-3.265 3.824-22.761-19.831-22.761-19.831s-26.219 7.879-32.738 15.096c0 0 28.795 8.822 24.682 11.738-4.113 2.915-34.488-4.88-34.488-4.88s-16.084 10.002-16.156 21.558c0 0 4.767 9.939 9.703 13.83 6.33 4.99 17.292 1.153 17.292 1.153 6.467-5.303 16.224-13.617 17.435-11.612 1.21 2.005-3.117 10.419-8.888 16.356l18.798 10.433c2.904-.463 5.501-1.574 7.396-3.683 8.85-9.769 6.363-18.5 11.949-24.445 5.577-5.93 11.434-8.316 9.898-3.97-1.522 4.354-12.666 12.526-13.749 21.065-1.083 8.54-2.688 14.656 7.992 8.283 10.68-6.374 25.764-22.261 22.67-32.129-.138-.438-.254-.845-.379-1.238.325.752.394 1.246.394 1.246 2.55-.545 9.247 1.801 14.217 3.759.796.385 1.946.852 3.537 1.45.725.307 1.311.555 1.72.745 3.074 1.496 6.206 3.882 9.061 6.495l1.664-2.999c-6.901-5.068-13.271-6.699-13.285-6.707-13.064-4.566-20-12.624-20-12.624.016-.03 8.422-25.47-11.635-31.232zm28.602-103.672s1.894 32.787-4.234 32.766c-6.122-.044.524-36.684.524-36.684s-27.892-18.171-39.706-18.553c0 0 14.398 33.639 8.485 32.104-5.928-1.528-22.544-35.845-22.544-35.845s-29.764-9.595-36.99 7.844c-7.227 17.439-.498 27.501 3.875 29.208 4.374 1.707 33.405 5.09 32.176 8.752-1.23 3.661-21.59 7.155-32.079 2.351 0 0 8.209 31.31 24.202 31.851 16.008.534 22.171-8.613 32.05-8.1 9.88.513 16.699 4.072 11.462 6.083-5.237 2.01-21.577-1.909-30.351 3.786-8.774 5.695-15.718 9.01-1.416 13.918 14.287 4.915 40.887 6.439 47.631-4.166.286-.464.564-.907.835-1.326-.437.898-.835 1.326-.835 1.326 2.506 1.934 5.588 9.991 7.653 16.137.272 1.04.733 2.488 1.438 4.447.269.891.485 1.604.639 2.124 3.503 13.624-2.128 35.634-2.128 35.634l3.036 1.251c9.864-21.636.063-41.743.063-41.743-6.011-15.707-3.98-28.462-3.98-28.462s30.29-12.157 19.877-35.319c.008.015-8.829-14.524-19.683-19.384z" fill="#23BC86"/><path d="M297.344 249.85s-13.037 32.98-27.191 56.195c-5.63 9.233-11.427 16.926-16.657 20.391-5.122 3.372-9.255 8.295-12.584 13.633-8.605 13.822-11.685 30.456-11.685 30.456l-46.429-58.505s-3.895-60.807.146-71.39c5.893-15.424 6.755-45.604 8.99-51.8 1.655-4.591 5.523-27.912 5.924-29.635.185-.752 2.03-2.016 4.551-2.236 2.024-.176 5.645 1.481 6.859 5.437 6.168 19.956 2.046 33.838 2.164 34.43 2.906 15.51-.727 27.511 2.793 30.313.126.106.354.036.65-.207 5.339-4.126 35.992-58.383 40.209-59.853 4.493-1.562 42.26 82.771 42.26 82.771z" fill="#EFA26F"/><path d="M240.497 357.156s2.9 29.447 4.546 66.747c-35.515 11.078-48.857 13.768-111.73 19.112 19.256-52.511 43.309-108.676 43.309-108.676s59.09-3.327 63.875 22.817z" fill="#F99746"/><path d="M323.883 139.77l-11.082 19.738-10.863 19.367c-.683.979-1.534 1.388-2.488 1.371-3.01-.022-7.101-4.012-10.179-6.151l-.319-.206c-4.073-2.821-5.116-8.464-2.296-12.537l17.05-24.705 5.061-7.327c2.82-4.074 8.462-5.117 12.535-2.296l.318.206c4.055 2.806 5.082 8.45 2.263 12.54z" fill="#FFB27D"/><path d="M312.801 159.508l-10.863 19.368c-.684.979-1.534 1.387-2.488 1.37l4.256-43.598c.02.232 3.058 19.358 9.095 22.86z" fill="#EFA26F"/><path d="M270.153 306.046c-5.63 9.233-11.427 16.926-16.657 20.39-5.121 3.372-9.255 8.296-12.583 13.634a1055.153 1055.153 0 01-14.651-5.493c-6.12-2.342-7.062-10.651-1.592-14.237.047-.038.111-.077.157-.114 5.122-3.556 9.68-14.918 9.68-14.918l35.646.738z" fill="#D38254"/><path d="M197.675 160.163l-2.147 13.711s3.006.941 4.8-.151c1.761-1.073 2.238-13.25-2.653-13.56z" fill="#FFC197"/><path d="M306.981 309.238l-71.488 6.23c-7.033.613-13.29-4.642-13.903-11.676l-13.696-157.156c-.613-7.035 4.641-13.293 11.674-13.906l71.488-6.23c7.033-.613 13.29 4.642 13.903 11.677l13.696 157.156c.613 7.034-4.641 13.292-11.674 13.905z" fill="#2B478B"/><path d="M300.255 139.807l13.379 153.523c.454 5.209-3.404 9.841-8.579 10.292l-68.636 5.982c-5.175.451-9.759-3.446-10.213-8.655l-13.38-153.523c-.454-5.209 3.404-9.841 8.563-10.291l68.652-5.983c5.159-.449 9.76 3.446 10.214 8.655z" fill="#C0D8FB"/><path d="M290.042 131.152l-52.761 178.36-.846.074c-5.175.45-9.759-3.446-10.213-8.655l-13.378-153.506c-.454-5.21 3.404-9.842 8.562-10.291l68.636-5.982z" fill="#CBE1FD"/><mask id="a" maskUnits="userSpaceOnUse" x="211" y="130" width="104" height="181"><path d="M299.906 139.829l13.379 153.523c.454 5.209-3.404 9.841-8.579 10.292l-68.636 5.982c-5.175.451-9.759-3.446-10.213-8.655l-13.38-153.523c-.454-5.209 3.404-9.841 8.563-10.291l68.652-5.983c5.159-.449 9.76 3.446 10.214 8.655z" fill="#C0D8FB"/></mask><g mask="url(#a)"><path d="M299.906 139.829l13.379 153.523c.454 5.209-3.404 9.841-8.579 10.292l-68.636 5.982c-5.175.451-9.759-3.446-10.213-8.655l-13.38-153.523c-.454-5.209 3.404-9.841 8.563-10.291l68.652-5.983c5.159-.449 9.76 3.446 10.214 8.655z" fill="#F4F6FC"/></g><path d="M270.551 138.601l-28.695 2.501a4.271 4.271 0 01-4.616-3.877l-.058-.664a4.271 4.271 0 013.876-4.617l28.695-2.5a4.272 4.272 0 014.617 3.877l.057.663a4.27 4.27 0 01-3.876 4.617z" fill="#2B478B"/><path d="M323.694 210.663l-1.829.878-12.316 5.954a6.26 6.26 0 01-.871.36c-4.118 1.462-8.808-.386-10.747-4.412l-.226-.482c-2.08-4.315-.264-9.555 4.05-11.636l11.483-5.548.834-.407 1.828-.878c4.315-2.081 9.554-.264 11.634 4.051l.225.465c2.082 4.332.249 9.573-4.065 11.655z" fill="#FFB27D"/><path d="M313.37 211.863c-2.052.998-5.776 2.76-7.807 3.237-.573.134-1.679-.087-2.769-1.095-.655-.612-1.317-1.49-1.861-2.747-.252-.596-.47-1.179-.591-1.804a7.475 7.475 0 01-.125-2.195c.06-.658.456-1.294 1.075-1.665l.017-.002c2.098-1.236 4.939-2.77 7.464-3.709 1.748-.654 3.626-.015 4.326 1.495l.329.707 1.686 3.63c.697 1.478-.06 3.332-1.744 4.148z" fill="#FFD3B6"/><path d="M313.37 211.863c-2.052.998-5.776 2.76-7.807 3.238-.573.134-1.679-.088-2.769-1.096-.122-.24-.244-.497-.368-.77-.253-.597-.471-1.179-.592-1.804a7.482 7.482 0 01-.125-2.196c.06-.657.456-1.293 1.075-1.665l.017-.001c2.098-1.236 4.939-2.771 7.465-3.71 1.117-.415 2.297-.3 3.178.225l1.687 3.631c.68 1.478-.077 3.333-1.761 4.148z" fill="#FFC197"/><path d="M319.483 229.083l-9.587 3.526c-2.914 1.073-6.171-.431-7.244-3.347l-.395-1.085c-1.073-2.916.431-6.173 3.346-7.246l9.587-3.526c2.914-1.074 6.171.431 7.244 3.347l.395 1.085c1.073 2.915-.431 6.172-3.346 7.246z" fill="#FFB27D"/><path d="M314.116 229.065c-1.766.639-4.96 1.77-6.659 2.018-.611.087-1.918-.334-2.872-1.889a6.824 6.824 0 01-.62-1.351c-.158-.471-.299-.943-.341-1.424a5.736 5.736 0 01.07-1.694c.106-.511.466-.977 1.013-1.225l.016-.002c1.817-.827 4.27-1.826 6.41-2.397 1.486-.397 2.959.21 3.431 1.406l.326.857.994 2.588c.457 1.214-.325 2.603-1.768 3.113z" fill="#FFD3B6"/><path d="M314.116 229.065c-1.766.639-4.96 1.77-6.659 2.018-.611.087-1.918-.334-2.872-1.889a6.238 6.238 0 01-.318-1.343 5.744 5.744 0 01.07-1.695c.105-.51.466-.976 1.013-1.225l.016-.001c1.817-.827 4.27-1.826 6.409-2.397 1.226-.324 2.459.019 3.1.85l.994 2.587c.472 1.196-.31 2.585-1.753 3.095z" fill="#FFC197"/><path d="M168.378 356.153s21.907 17.615 36.194 23.909l9.679-8.216.941 10.801s20.615 1.814 26.705-2.328l-2.568-29.463-59.516-23.615-11.435 28.912z" fill="#ED7D2B"/><path d="M182.608 309.83s-11.164 20.33-22.144 41.998c0 0 28.517 16.17 43.569 20.324l17.215-23.582-.438 26.617s17.472 4.695 25.178 2.402c0 0-2.583-23.879-3.949-39.556.015-.018-47.663-9.002-59.431-28.203z" fill="#F3F8FF"/><path d="M190.01 358.33a3.198 3.198 0 016.375-.489 3.198 3.198 0 01-2.944 3.432c-1.761.121-3.295-1.183-3.431-2.943z" fill="#F99746"/><path d="M321.738 191.86a.847.847 0 01-.21.086l-12.6 4.424c-5.529 1.953-11.668-.605-13.615-5.684l-.996-2.604c-1.878-4.868.768-10.364 5.879-12.514l4.151-1.465 8.431-2.975c5.529-1.953 11.668.604 13.615 5.684l.995 2.604c1.874 4.818-.662 10.238-5.65 12.444z" fill="#FFB27D"/><path d="M315.536 188.774l-6.007 3.365c-.017.001-.017.001-.032.019-.243.088-.488.16-.75.216a2.122 2.122 0 01-.312.061l-.133.011c-.698.045-1.226-.645-.986-1.335a6.228 6.228 0 00-.021-4.277l-.197-.534-.002-.017-.635-1.733a6.68 6.68 0 00-2.575-3.269l-.424-.264c-1.319-.755-1.173-2.723.252-3.248.016-.002.033-.003.031-.02l6.776-1.644c1.652-.611 3.408.556 4.02 2.208l.723 1.976 1.554 4.211c.601 1.719.369 3.662-1.282 4.274z" fill="#FFD3B6"/><path d="M315.536 188.774l-6.008 3.365c-.016.001-.016.001-.031.019-.147.046-.605.153-1.194.305-.698.044-1.226-.646-.985-1.335a6.237 6.237 0 00-.022-4.278l-.197-.534-.001-.017-.636-1.733a6.68 6.68 0 00-2.575-3.269c.187-.351.497-.628.918-.782.017-.002.033-.003.032-.02l6.776-1.643c1.393-.506 2.861.235 3.654 1.47l1.554 4.211c.598 1.686.366 3.629-1.285 4.241z" fill="#FFC197"/><path d="M218.521 268.388s-4.941-24.292-7.962-28.843c-3.004-4.553-6.045-13.949-2.668-21.415 3.36-7.464 3.559-21.288 3.559-21.288 2.906 15.509-.727 27.511 2.792 30.313.127.106.355.036.651-.207l3.628 41.44z" fill="#D38254"/><path d="M366.367 363.968c-.284-17.267-28.84-19.118-28.84-19.118s-25.672 23.598-31.235 22.912c-5.562-.686 18.01-24.472 18.01-24.472-10.185-3.66-40.025 2.409-40.025 2.409s-6.673 33.423-11.88 31.401c-5.22-2.043 7.416-29.301 7.416-29.301-10.873.478-23.281 9.877-23.281 9.877-16.641 16.213 5.023 36.744 5.023 36.744s-2.557 11.531-12.953 22.883c0 0-2.211 2.017-4.871 5.742l2.76.698a26.35 26.35 0 011.282-1.943l.004-.016c.004-.016.02-.012.024-.028.3-.371.714-.919 1.241-1.576 1.256-1.434 2.127-2.502 2.723-3.296l.004-.016c3.826-4.529 9.165-10.358 11.942-11.149 0 0-.197-.514-.279-1.411.092.453.179.922.279 1.411 2.155 11.298 25.295 18.942 39.116 19.571 13.821.629 9.027-4.518 3.481-12.329-5.549-7.795-20.767-9.963-24.545-13.427-3.777-3.464 3.211-4.203 11.804-1.307 8.576 2.892 10.752 12.753 24.548 17.688 13.8 4.918 31.316-18.958 31.316-18.958-10.534.564-26.681-9.26-26.489-12.802.176-3.546 26.028 3.358 30.316 3.379 4.293.004 13.405-6.279 13.109-23.566z" fill="#23BC86"/><path fill-rule="evenodd" clip-rule="evenodd" d="M148.63 158.657c.139-2.385.615-4.381 1.011-5.491a18.644 18.644 0 011.294 5.519 18.63 18.63 0 015.518 1.294c-1.109.396-3.106.871-5.49 1.011-.133 2.532-.784 4.499-1.322 5.506-.654-1.831-.952-3.714-1.03-5.487-1.774-.078-3.657-.377-5.488-1.03 1.008-.538 2.975-1.189 5.507-1.322z" fill="url(#paint0_linear)"/><path fill-rule="evenodd" clip-rule="evenodd" d="M129.819 142.967c.093-1.587.409-2.916.673-3.655.518 1.296.774 2.54.861 3.674 1.134.086 2.378.342 3.673.861-.738.263-2.067.58-3.654.673-.089 1.685-.522 2.995-.88 3.665-.435-1.218-.634-2.472-.686-3.653-1.18-.051-2.434-.25-3.652-.685.67-.358 1.98-.791 3.665-.88z" fill="url(#paint1_linear)"/><path fill-rule="evenodd" clip-rule="evenodd" d="M99.51 131.789c.139-2.385.614-4.381 1.011-5.491a18.664 18.664 0 011.293 5.519c1.704.13 3.573.515 5.519 1.293-1.11.396-3.106.872-5.491 1.011-.133 2.532-.784 4.499-1.321 5.507-.654-1.831-.953-3.714-1.03-5.488-1.774-.078-3.657-.376-5.488-1.03 1.008-.537 2.975-1.188 5.507-1.321z" fill="url(#paint2_linear)"/><path fill-rule="evenodd" clip-rule="evenodd" d="M102.104 186.597c.205-3.508.905-6.445 1.488-8.078a27.44 27.44 0 011.902 8.12c2.507.191 5.256.757 8.12 1.902-1.633.583-4.57 1.283-8.078 1.488-.196 3.725-1.154 6.619-1.944 8.101-.962-2.693-1.401-5.464-1.516-8.073-2.61-.115-5.38-.554-8.073-1.516 1.482-.79 4.376-1.748 8.101-1.944z" fill="url(#paint3_linear)"/><circle cx="123.421" cy="165.85" r="1.288" fill="#2F235A"/><circle cx="152.985" cy="128.912" r="1.288" fill="#FE9076"/><circle cx="88.187" cy="160.736" r="1.288" fill="#FFA400"/><circle cx="145.924" cy="185.72" r="1.288" fill="#23BB86"/><path d="M149.829 123.536c-2.913-4-11.118-12.545-20.635-14.72" stroke="#FE9076" stroke-width="1.603" stroke-linecap="round"/><path d="M82.751 157.283c-4.305-2.44-15.306-6.832-24.872-4.882" stroke="#FFA400" stroke-width="1.603" stroke-linecap="round"/><path d="M141.502 189.462c-2.206 1.947-7.513 7.474-11.094 14.014" stroke="#23BB86" stroke-width="1.603" stroke-linecap="round"/><path fill-rule="evenodd" clip-rule="evenodd" d="M352.103 174.657c-.14-2.385-.615-4.381-1.012-5.491a18.664 18.664 0 00-1.293 5.519c-1.704.13-3.572.515-5.519 1.293 1.11.397 3.106.872 5.491 1.012.133 2.531.784 4.499 1.321 5.506.654-1.831.953-3.714 1.03-5.488 1.774-.077 3.657-.376 5.488-1.03-1.007-.537-2.975-1.188-5.506-1.321z" fill="url(#paint4_linear)"/><path fill-rule="evenodd" clip-rule="evenodd" d="M370.914 158.967c-.093-1.587-.41-2.916-.673-3.655a12.381 12.381 0 00-.861 3.674 12.437 12.437 0 00-3.674.861c.739.264 2.068.58 3.655.673.089 1.685.522 2.995.88 3.665.435-1.218.633-2.472.685-3.652 1.181-.052 2.434-.251 3.653-.686-.671-.358-1.98-.791-3.665-.88z" fill="url(#paint5_linear)"/><path fill-rule="evenodd" clip-rule="evenodd" d="M401.223 147.788c-.139-2.384-.615-4.381-1.011-5.49a18.634 18.634 0 00-1.293 5.518 18.668 18.668 0 00-5.519 1.294c1.109.396 3.106.872 5.491 1.011.133 2.532.784 4.499 1.321 5.507.654-1.831.952-3.714 1.03-5.488 1.774-.078 3.657-.376 5.488-1.03-1.008-.537-2.975-1.189-5.507-1.322z" fill="url(#paint6_linear)"/><path fill-rule="evenodd" clip-rule="evenodd" d="M398.629 202.597c-.205-3.509-.905-6.446-1.488-8.078a27.469 27.469 0 00-1.903 8.119 27.469 27.469 0 00-8.119 1.903c1.632.583 4.569 1.283 8.078 1.488.196 3.725 1.153 6.619 1.944 8.101.962-2.693 1.401-5.464 1.515-8.073 2.61-.115 5.381-.554 8.074-1.516-1.482-.79-4.376-1.748-8.101-1.944z" fill="url(#paint7_linear)"/><circle r="1.288" transform="matrix(-1 0 0 1 377.312 181.85)" fill="#2F235A"/><circle r="1.288" transform="matrix(-1 0 0 1 347.747 144.912)" fill="#FE9076"/><circle r="1.288" transform="matrix(-1 0 0 1 412.546 176.736)" fill="#FFA400"/><circle r="1.288" transform="matrix(-1 0 0 1 354.809 201.72)" fill="#23BB86"/><path d="M350.904 139.536c2.913-4 11.117-12.545 20.635-14.72" stroke="#FE9076" stroke-width="1.603" stroke-linecap="round"/><path d="M417.982 173.283c4.304-2.44 15.306-6.832 24.872-4.882" stroke="#FFA400" stroke-width="1.603" stroke-linecap="round"/><path d="M359.231 205.462c2.206 1.946 7.513 7.474 11.094 14.014" stroke="#23BB86" stroke-width="1.603" stroke-linecap="round"/><path d="M291.777 66.654c-1.763-2.724-5.332-1.24-5.332 1.727 0 2.228 4.893 5.713 5.332 6.166.443-.453 5.092-3.938 5.092-6.166 0-2.945-3.325-4.451-5.092-1.727z" fill="#FFBCBC"/><circle cx="291.657" cy="69.884" r="11.603" stroke="#F7F7F7" stroke-width=".65"/><path d="M249.956 50.412c-1.561-2.41-4.72-1.097-4.72 1.529 0 1.971 4.331 5.056 4.72 5.457.391-.4 4.506-3.486 4.506-5.457 0-2.607-2.943-3.94-4.506-1.529z" fill="#FFBCBC"/><circle cx="249.849" cy="53.271" r="10.27" stroke="#F7F7F7" stroke-width=".575"/><path d="M277.556 32.699c-1.067-1.649-3.228-.75-3.228 1.045 0 1.349 2.962 3.459 3.228 3.733.268-.274 3.082-2.384 3.082-3.733 0-1.782-2.013-2.694-3.082-1.045z" fill="#FFBCBC"/><circle cx="277.483" cy="34.654" r="7.024" stroke="#F7F7F7" stroke-width=".393"/><path d="M228.804 23.524c-.874-1.35-2.642-.614-2.642.855 0 1.104 2.424 2.83 2.642 3.054.219-.224 2.522-1.95 2.522-3.054 0-1.458-1.647-2.204-2.522-.855z" fill="#FFBCBC"/><circle cx="228.744" cy="25.124" r="5.747" stroke="#F7F7F7" stroke-width=".322"/><path d="M224.508 86.765c-1.907-2.945-5.767-1.34-5.767 1.868 0 2.41 5.291 6.178 5.767 6.668.478-.49 5.506-4.259 5.506-6.668 0-3.184-3.596-4.813-5.506-1.868z" fill="#FFBCBC"/><circle cx="224.378" cy="90.258" r="12.547" stroke="#F7F7F7" stroke-width=".703"/><circle cx="233.002" cy="185.726" r="4.612" transform="rotate(-12.817 233.002 185.726)" fill="#CAE0FF"/><circle cx="255.579" cy="183.236" r="4.612" transform="rotate(-12.817 255.579 183.236)" fill="#CAE0FF"/><circle cx="277.471" cy="180.823" r="4.612" transform="rotate(-12.817 277.471 180.823)" fill="#CAE0FF"/><rect width="55.673" height="4.975" rx="2.487" transform="matrix(.9964 -.08483 .1129 .9936 229.079 199.939)" fill="#CAE0FF"/><rect width="55.673" height="4.975" rx="2.487" transform="matrix(.9964 -.08483 .1129 .9936 230.285 214.416)" fill="#CAE0FF"/><rect width="55.673" height="4.975" rx="2.487" transform="matrix(.9964 -.08483 .1129 .9936 232.884 228.816)" fill="#CAE0FF"/><rect width="55.673" height="4.975" rx="2.487" transform="matrix(.9964 -.08483 .1129 .9936 234.289 243.216)" fill="#CAE0FF"/><rect x="267.454" y="255.33" width="30.223" height="8.347" rx="4" transform="rotate(-5.288 267.454 255.33)" fill="#75B9FF"/><rect x="235.887" y="257.72" width="27.273" height="8.331" rx="3.5" transform="rotate(-4.713 235.887 257.72)" stroke="#75B9FF"/><rect x="254.679" y="270.799" width="29.483" height="29.483" rx="14.741" transform="rotate(-3.856 254.679 270.799)" fill="#E0FFE5"/><rect x="260.806" y="276.152" width="17.977" height="17.977" rx="8.989" transform="rotate(-3.856 260.806 276.152)" fill="#4CD964"/><path d="M273.452 281.894l-.453-.317c-.224-.156-.347-.146-.513.09l-2.866 4.069-1.537-1.111c-.212-.155-.337-.137-.488.08l-.303.455c-.154.223-.124.342.086.495l2.189 1.575c.226.165.345.139.496-.073l3.478-4.75c.163-.225.144-.352-.089-.513z" fill="#fff"/><path d="M240.616 156.828c-.031-.294.121-.459.41-.489l4.887-.513c.305-.032.472.099.503.393l.039.37c.031.294-.104.472-.409.504l-3.957.415.332 3.161 3.12-.328c.304-.032.472.099.503.394l.038.367c.031.295-.104.472-.408.504l-3.121.328.351 3.339 3.957-.416c.306-.032.473.114.504.408l.039.368c.031.294-.106.457-.41.489l-4.886.513c-.289.03-.472-.099-.503-.393l-.989-9.414zm8.599-1.348l.457-.048c.305-.032.487.097.518.391l.478 4.56 3.07-5.065c.117-.206.256-.34.561-.372l.655-.068c.289-.031.416.3.284.505l-2.619 4.082 3.666 5.162c.145.208.069.513-.236.545l-.594.062c-.32.034-.481-.038-.646-.289l-2.956-4.27-.99 1.562.315 3c.031.294-.121.459-.426.491l-.456.048c-.29.03-.472-.1-.503-.394l-.988-9.413c-.031-.294.121-.459.41-.489zm9.888.241l-1.978.207c-.306.032-.474-.113-.505-.407l-.038-.368c-.031-.294.105-.457.41-.489l5.358-.562c.304-.032.472.099.502.393l.039.369c.031.295-.104.472-.409.504l-1.994.209.901 8.589c.031.294-.106.457-.41.489l-.456.047c-.306.032-.487-.097-.518-.391l-.901-8.59h-.001zm5.813 1.145c-.221-2.103 1.038-3.306 2.865-3.498 1.826-.191 3.307.724 3.527 2.827l.72 6.855c.031.294-.106.457-.411.489l-.456.047c-.305.032-.472-.099-.503-.393l-.318-3.03-3.653.384.318 3.029c.031.294-.106.457-.41.489l-.456.048c-.305.032-.473-.099-.504-.393l-.719-6.854zm1.638 2.416l3.653-.384-.254-2.426c-.159-1.515-1.035-1.944-2.04-1.839-1.004.106-1.772.707-1.613 2.222l.254 2.427zm6.653-9.41c-.38.042-.738.193-1.031.433-.292.24-.506.559-.613.916a1.84 1.84 0 00.255 1.584c.161.229.371.42.617.56a1.978 1.978 0 001.901.024c.336-.178.61-.449.788-.779.178-.329.253-.702.214-1.071a1.86 1.86 0 00-.709-1.265 1.941 1.941 0 00-.669-.339c-.244-.069-.5-.09-.753-.063zm.312 2.981a1.168 1.168 0 01-.652-.125 1.12 1.12 0 01-.469-.456 1.094 1.094 0 01.126-1.234 1.154 1.154 0 01.885-.413 1.162 1.162 0 01.886.4 1.1 1.1 0 01.257.596c.022.221-.023.443-.13.639a1.155 1.155 0 01-.903.593z" fill="#4CC6E1"/><defs><linearGradient id="paint0_linear" x1="149.788" y1="154.585" x2="149.788" y2="167.101" gradientUnits="userSpaceOnUse"><stop stop-color="#FFE89E"/><stop offset="1" stop-color="#FFBF1A"/></linearGradient><linearGradient id="paint1_linear" x1="130.59" y1="140.257" x2="130.59" y2="148.588" gradientUnits="userSpaceOnUse"><stop stop-color="#FFE89E"/><stop offset="1" stop-color="#FFBF1A"/></linearGradient><linearGradient id="paint2_linear" x1="100.668" y1="127.717" x2="100.668" y2="140.233" gradientUnits="userSpaceOnUse"><stop stop-color="#FFE89E"/><stop offset="1" stop-color="#FFBF1A"/></linearGradient><linearGradient id="paint3_linear" x1="103.808" y1="180.606" x2="103.808" y2="199.02" gradientUnits="userSpaceOnUse"><stop stop-color="#FFE89E"/><stop offset="1" stop-color="#FFBF1A"/></linearGradient><linearGradient id="paint4_linear" x1="350.944" y1="170.585" x2="350.944" y2="183.101" gradientUnits="userSpaceOnUse"><stop stop-color="#FFE89E"/><stop offset="1" stop-color="#FFBF1A"/></linearGradient><linearGradient id="paint5_linear" x1="370.143" y1="156.257" x2="370.143" y2="164.588" gradientUnits="userSpaceOnUse"><stop stop-color="#FFE89E"/><stop offset="1" stop-color="#FFBF1A"/></linearGradient><linearGradient id="paint6_linear" x1="400.065" y1="143.717" x2="400.065" y2="156.232" gradientUnits="userSpaceOnUse"><stop stop-color="#FFE89E"/><stop offset="1" stop-color="#FFBF1A"/></linearGradient><linearGradient id="paint7_linear" x1="396.924" y1="196.606" x2="396.924" y2="215.02" gradientUnits="userSpaceOnUse"><stop stop-color="#FFE89E"/><stop offset="1" stop-color="#FFBF1A"/></linearGradient></defs></svg>