<svg width="567" height="446" fill="none" xmlns="http://www.w3.org/2000/svg"><path d="M38.376 445.579s-37.174-45.885-18.8-134.512c11.556-55.744 60.105-83.363 125.186-80.726 22.372.906 58.771-26.104 111.069-59.283 111.869-70.97 273.69-40.828 234.961 118.808-18.743 77.253 58.952 78.49 20.338 155.713H38.376z" fill="#EBF3FA"/><path d="M62.846 9.688a28.137 28.137 0 0119.87-8.24h168.57a28.15 28.15 0 0128.124 28.11V405.77a28.15 28.15 0 01-28.123 28.112H81.027a28.153 28.153 0 01-26.422-28.059V29.558a28.137 28.137 0 018.24-19.87z" fill="#fff" stroke="#75B9FF"/><path d="M251.287 7.304h-27.458l-4.993 8.833a14.785 14.785 0 01-12.857 7.497h-77.995a14.799 14.799 0 01-12.87-7.497l-4.98-8.833H82.716a22.28 22.28 0 00-22.28 22.28v376.238a22.283 22.283 0 0022.28 22.281h168.571a22.28 22.28 0 0022.28-22.281V29.558a22.28 22.28 0 00-22.28-22.254z" fill="url(#paint0_linear)"/><path d="M193.515 15.26H141.09a2.134 2.134 0 01-2.123-2.124 2.135 2.135 0 012.123-2.123h52.425a2.135 2.135 0 012.123 2.123 2.133 2.133 0 01-2.123 2.123z" fill="#E7E8FA"/><path opacity=".08" d="M241.221 54.473h-78.44c-8.194 0-14.836 6.642-14.836 14.836v232.11c0 8.194 6.642 14.836 14.836 14.836h78.44c8.194 0 14.836-6.642 14.836-14.836V69.309c0-8.194-6.642-14.836-14.836-14.836z" fill="#fff"/><path d="M273.2 343.083c13.355 0 24.181-10.826 24.181-24.181 0-13.354-10.826-24.18-24.181-24.18s-24.181 10.826-24.181 24.18c0 13.355 10.826 24.181 24.181 24.181z" fill="#A1C2FF"/><path d="M279.858 96.924h-88.991a10.07 10.07 0 00-7.117 2.948 10.06 10.06 0 00-2.948 7.117v129.777a10.061 10.061 0 006.213 9.299 10.07 10.07 0 003.852.767h88.991V96.924z" fill="#323197" opacity=".31"/><path d="M307.722 87.068H199.609c-5.559 0-10.065 4.506-10.065 10.065v129.843c0 5.559 4.506 10.065 10.065 10.065h108.113c5.559 0 10.065-4.506 10.065-10.065V97.133c0-5.559-4.506-10.065-10.065-10.065z" fill="url(#paint1_linear)"/><path d="M252.597 114.093V87.068h-52.988a10.065 10.065 0 00-10.065 10.065v16.96h63.053z" fill="#A1C2FF"/><path d="M220.48 100.508v2.41h-.812v-6.156h2.271c.674 0 1.201.172 1.582.516.383.343.575.799.575 1.365 0 .598-.188 1.059-.563 1.383-.372.321-.906.482-1.602.482h-1.451zm0-.664h1.459c.434 0 .767-.101.998-.304.231-.206.347-.502.347-.888 0-.367-.116-.66-.347-.88-.231-.22-.548-.334-.951-.342h-1.506v2.414zm6.91.584h-1.446v2.49h-.817v-6.156h2.039c.693 0 1.226.157 1.598.473.375.316.562.775.562 1.379 0 .383-.104.717-.313 1.002a1.838 1.838 0 01-.862.638l1.446 2.614v.05h-.871l-1.336-2.49zm-1.446-.664h1.247c.403 0 .723-.104.96-.313.239-.209.359-.488.359-.837 0-.38-.114-.673-.342-.876-.226-.203-.553-.305-.981-.308h-1.243v2.334z" fill="#fff"/><path d="M283.71 101.311h-2.579l-.579 1.607h-.838l2.351-6.156h.711l2.355 6.156h-.833l-.588-1.607zm-2.334-.668h2.093l-1.048-2.88-1.045 2.88zm6.064-.79l1.607-3.091h.921l-2.122 3.86v2.296h-.812v-2.296l-2.123-3.86h.93l1.599 3.09z" fill="#93A5C9"/><path d="M218.023 129.191h-13.918a2.975 2.975 0 00-2.976 2.975v13.919a2.975 2.975 0 002.976 2.975h13.918a2.975 2.975 0 002.975-2.975v-13.919a2.975 2.975 0 00-2.975-2.975zm28.231 0h-13.919a2.975 2.975 0 00-2.975 2.975v13.919a2.975 2.975 0 002.975 2.975h13.919a2.975 2.975 0 002.975-2.975v-13.919a2.975 2.975 0 00-2.975-2.975zm28.217 0h-13.918a2.975 2.975 0 00-2.975 2.975v13.919a2.975 2.975 0 002.975 2.975h13.918a2.975 2.975 0 002.976-2.975v-13.919a2.975 2.975 0 00-2.976-2.975zm28.218 0H288.77a2.975 2.975 0 00-2.975 2.975v13.919a2.975 2.975 0 002.975 2.975h13.919a2.975 2.975 0 002.975-2.975v-13.919a2.975 2.975 0 00-2.975-2.975zm-84.666 30.996h-13.918a2.975 2.975 0 00-2.976 2.975v13.919a2.975 2.975 0 002.976 2.975h13.918a2.975 2.975 0 002.975-2.975v-13.919a2.975 2.975 0 00-2.975-2.975zm28.231 0h-13.919a2.975 2.975 0 00-2.975 2.975v13.919a2.975 2.975 0 002.975 2.975h13.919a2.975 2.975 0 002.975-2.975v-13.919a2.975 2.975 0 00-2.975-2.975z" fill="#A1C2FF"/><path d="M274.471 160.187h-13.918a2.975 2.975 0 00-2.975 2.975v13.919a2.975 2.975 0 002.975 2.975h13.918a2.975 2.975 0 002.976-2.975v-13.919a2.975 2.975 0 00-2.976-2.975z" fill="#FF8D02"/><path d="M302.689 160.187H288.77a2.975 2.975 0 00-2.975 2.975v13.919a2.975 2.975 0 002.975 2.975h13.919a2.975 2.975 0 002.975-2.975v-13.919a2.975 2.975 0 00-2.975-2.975zm-84.666 31.009h-13.918a2.975 2.975 0 00-2.976 2.975v13.919a2.975 2.975 0 002.976 2.975h13.918a2.975 2.975 0 002.975-2.975v-13.919a2.975 2.975 0 00-2.975-2.975zm28.231 0h-13.919a2.975 2.975 0 00-2.975 2.975v13.919a2.975 2.975 0 002.975 2.975h13.919a2.975 2.975 0 002.975-2.975v-13.919a2.975 2.975 0 00-2.975-2.975zm28.217 0h-13.918a2.975 2.975 0 00-2.975 2.975v13.919a2.975 2.975 0 002.975 2.975h13.918a2.975 2.975 0 002.976-2.975v-13.919a2.975 2.975 0 00-2.976-2.975zm28.218 0H288.77a2.975 2.975 0 00-2.975 2.975v13.919a2.975 2.975 0 002.975 2.975h13.919a2.975 2.975 0 002.975-2.975v-13.919a2.975 2.975 0 00-2.975-2.975z" fill="#A1C2FF"/><path opacity=".08" d="M131.366 56.059H77.329a4.378 4.378 0 00-4.377 4.377v7.143a4.378 4.378 0 004.377 4.378h54.037a4.377 4.377 0 004.377-4.378v-7.143a4.377 4.377 0 00-4.377-4.377zm0 23.853H77.329a4.377 4.377 0 00-4.377 4.377v7.143a4.377 4.377 0 004.377 4.378h54.037a4.377 4.377 0 004.377-4.378V84.29a4.377 4.377 0 00-4.377-4.377z" fill="#fff"/><path d="M78.253 235.848a72.403 72.403 0 0024.416-4.221V94.865a72.606 72.606 0 00-95.972 55.984 72.607 72.607 0 0071.556 84.999z" fill="#323197" opacity=".31"/><path d="M78.522 230.41c37.465 0 67.837-30.372 67.837-67.838 0-37.465-30.372-67.837-67.838-67.837-37.465 0-67.837 30.372-67.837 67.837 0 37.466 30.372 67.838 67.838 67.838z" fill="#fff"/><path d="M87.028 161.76s-4.968 13.237-1.652 21.914c1.232 8.283-22.28 2.07-26.055-8.27 1.232-6.619 5.78-11.167 6.2-24.404.419-13.237 21.939 2.071 21.507 10.76z" fill="url(#paint2_linear)"/><path d="M64.249 160.777c.43-1.751.746-3.529.944-5.321l13.106-6.121c4.705 3.395 8.86 8.559 8.676 12.425a50.48 50.48 0 00-2.726 12.752c-12.15-2.464-17.64-9.279-20-13.735z" fill="#FFA26E" opacity=".32"/><path d="M97.054 141.367s5.806 16.369.196 22.975c-8.768 10.327-22.411 4.679-27.863-1.547-5.453-6.225-5.243-32.149 3.931-36.238 9.175-4.089 19.843-1.167 23.736 14.81z" fill="url(#paint3_linear)"/><path d="M67.407 134.932c.17-.538.341-1.062.538-1.56l4.94-5.242 15.466-.957a17.842 17.842 0 015.872 6.553c-3.473 1.311-9.778 3.172-14.915 2.556-5.138-.616-4.456 0-4.456 0a11.597 11.597 0 01-.721 9.816c-2.844 4.994-5.701 7.484-4.273 11.599-1.245-2.32-2.228-18.637-2.45-22.765z" fill="#FFA26E" opacity=".32"/><path d="M71.942 134.525s3.264 5.177-1.73 14.417a13.578 13.578 0 000 8.637c.25 2.136-4.508-2.267-5.242-4.168-.708-1.428-5.112.59-6.488-1.31-1.376-1.901 1.023-4.05 1.023-4.05s-6.422-6.658-5.715-12.123c.708-5.466 7.143-5.007 7.143-5.007s-3.578-1.664-4.522-3.565c-.72-1.664 4.758 1.429 5.243 2.621a4.258 4.258 0 01.957-3.564c.943-1.193.236 3.564.236 3.564a21.147 21.147 0 014.036-6.422c3.093-3.577 8.572-1.192 12.857-3.813 4.286-2.622 3.565-7.615 6.422-7.864 2.857-.249 8.978 4.404 7.733 12.975a24.24 24.24 0 00.708-8.218c1.074-.537 3.932 7.497-1.075 11.245 0 0 2.857-.707 4.47-4.823 1.244-2.844 3.027 6.436-6.96 9.463-9.987 3.028-16.134-.144-19.096 2.005z" fill="url(#paint4_linear)"/><path d="M73.043 156.006a5.151 5.151 0 1010.302 0 5.151 5.151 0 00-10.302 0z" fill="#FE746A"/><path d="M66.372 154.866s-4.469-6.396-7.103-2.87c-2.635 3.525 8.1 9.921 8.388 6.946a5.514 5.514 0 00-1.285-4.076z" fill="url(#paint5_linear)"/><path d="M65.31 157.212s-2.24-4.102-5.085-4.102c-.812-.721 1.508-.446 2.766.524s3.21 2.739 2.32 3.578z" fill="#FF7D5A"/><path d="M65.39 156.465s-2.622-2.621-4.038-1.717c-.655 1.062 4.64 3.683 4.037 1.717z" fill="#FF7D5A"/><mask id="a" maskUnits="userSpaceOnUse" x="17" y="101" width="123" height="123"><path d="M78.522 223.778c33.802 0 61.205-27.403 61.205-61.206 0-33.803-27.403-61.205-61.206-61.205-33.802 0-61.205 27.402-61.205 61.205s27.403 61.206 61.206 61.206z" fill="#fff"/></mask><g mask="url(#a)"><path d="M109.515 223.937c-.819-2.142-2.391-31.747-2.391-35.748 0-4.404-4.757-7.101-4.757-7.101-2.643-1.708-10.69-3.326-13.306-3.956-1.574-.378-3.013-.831-4.282-1.348 0 0 .476 1.079-3.092 2.068-13.081.539-21.643-4.67-21.643-4.67s-20.204 3.411-23.785 7.187c-6.607 7.171-8.06 41.051-8.285 43.568h81.541z" fill="url(#paint6_linear)"/></g><path d="M129.924 147.199c9.656 0 17.483-7.828 17.483-17.484 0-9.656-7.827-17.483-17.483-17.483s-17.484 7.827-17.484 17.483 7.828 17.484 17.484 17.484z" fill="url(#paint7_linear)"/><path d="M123.03 129.99l5.57 5.557 10.537-10.524" stroke="#fff" stroke-width="2" stroke-linecap="round" stroke-linejoin="round"/><path d="M49.767 392.441a10.209 10.209 0 110-20.418 10.209 10.209 0 010 20.418zm0-17.222a7.021 7.021 0 00-6.492 4.34 7.023 7.023 0 005.13 9.577 7.027 7.027 0 008.387-6.905 7.026 7.026 0 00-7.025-7.012z" fill="#A1C2FF"/><path d="M51.89 383.765h-2.621a.8.8 0 01-.8-.8v-5.164a.799.799 0 011.6 0v4.365h1.782a.8.8 0 01.039 1.599z" fill="#A1C2FF"/><path opacity=".44" d="M234.721 257.972H176.7a4.374 4.374 0 00-4.378 4.371 4.374 4.374 0 004.378 4.371h58.021a4.374 4.374 0 004.377-4.371 4.374 4.374 0 00-4.377-4.371zm-40.538 22.647h-17.496a4.368 4.368 0 01-3.087-1.278 4.368 4.368 0 01-1.278-3.086 4.351 4.351 0 01.329-1.674 4.353 4.353 0 012.362-2.37 4.371 4.371 0 011.674-.334h17.496a4.366 4.366 0 014.365 4.378v0a4.364 4.364 0 01-4.365 4.364z" stroke="#fff" stroke-miterlimit="10"/><path d="M32.952 101.104a4.245 4.245 0 01-7.245 3.021 4.246 4.246 0 117.245-3.021z" fill="#A1C2FF"/><path d="M68.888 258.528c24.784 0 57.326-9.332 67.379-12.399a2.324 2.324 0 012.052.258 2.33 2.33 0 011.041 1.787v68.912c0 53.237-69.384 96.409-69.384 96.409S.579 370.323.579 317.086v-65.714a2.316 2.316 0 011.924-2.139c.342-.059.692-.04 1.025.055 9.567 2.293 40.616 9.24 65.36 9.24z" fill="#0663CF"/><path d="M69.976 269.851c18.584 0 41.691-6.094 53.289-10.904 3.461-1.429 7.392.891 7.392 4.377v55.295c0 46.566-60.681 84.312-60.681 84.312S9.294 365.185 9.294 318.619v-52.896c0-3.342 3.63-5.649 7.052-4.483 11.494 3.919 34.862 8.611 53.63 8.611z" fill="#FAAB69"/><path d="M70.618 284.858v103.355s-48.27-30.747-48.27-67.287v-41.94a3.773 3.773 0 015.15-3.263c9.018 3.185 28.114 9.135 43.12 9.135z" fill="url(#paint8_linear)"/><path d="M70.618 284.858v103.355s49.974-30.747 49.974-67.287v-41.94a3.764 3.764 0 00-5.085-3.276c-9.358 3.04-29.712 9.148-44.889 9.148z" fill="#A1C2FF"/><path d="M528.815 219.882c-.171-11.269-18.739-12.502-18.739-12.502s-16.724 15.37-20.338 14.914c-3.614-.456 11.739-15.943 11.739-15.943-6.619-2.392-26.033 1.535-26.033 1.535s-4.369 21.8-7.76 20.467c-3.391-1.333 4.85-19.105 4.85-19.105-7.069.299-15.151 6.419-15.151 6.419-10.839 10.56 3.239 23.977 3.239 23.977s-1.676 7.522-8.447 14.913c0 0-1.438 1.316-3.175 3.734l1.791.458a18.344 18.344 0 01.845-1.277l.013-.017c.194-.247.47-.597.811-1.021l.002-.001c0-.002.002 0 .002-.002.821-.935 1.391-1.633 1.771-2.147l.003-.006c2.496-2.953 5.971-6.743 7.781-7.262 0 0-.128-.33-.174-.921.056.293.112.6.174.921 1.393 7.371 16.438 12.383 25.423 12.807 8.984.423 5.875-2.942 2.274-8.037-3.602-5.094-13.497-6.522-15.953-8.786-2.455-2.264 2.094-2.738 7.674-.845 5.58 1.892 6.977 8.33 15.948 11.556 8.972 3.226 20.382-12.332 20.382-12.332-6.852.354-17.344-6.067-17.223-8.374.12-2.307 16.92 2.217 19.714 2.23 2.792.011 8.727-4.085 8.557-15.353z" fill="#DFEBFD"/><path d="M564.646 340.435c8.74-14.824-14.484-31.294-14.484-31.294s-34.026 6.654-38.374 3.168c-4.349-3.487 27.984-11.387 27.984-11.387-6.726-8.415-35.156-18.832-35.156-18.832s-23.033 24.922-26.394 20.47c-3.361-4.452 21.517-21.024 21.517-21.024-9.453-5.268-24.855-3.756-24.855-3.756-22.529 5.091-14.848 33.847-14.848 33.847s-8.168 8.464-22.873 12.679c0 0-2.923.565-7.11 2.326l1.969 2.028a27.923 27.923 0 012.148-1.002c.447-.166 1.087-.401 1.87-.682h.004l.004-.002c1.812-.563 3.113-1.017 4.014-1.382l.008-.004c5.6-1.853 13.146-4.011 15.918-3.241 0 0 .097-.533.507-1.341l-.507 1.341c-4.046 10.722 11.581 29.296 22.953 37.039 11.375 7.742 9.999.866 9.356-8.658-.644-9.525-12.407-19.303-13.807-24.219-1.401-4.917 4.908-1.894 10.677 5.038 5.77 6.933 2.471 16.442 11.6 27.827 9.129 11.387 36.377.234 36.377.234-9.212-5.019-17.783-21.787-15.791-24.699 1.992-2.913 20.295 16.431 23.926 18.683 3.632 2.257 14.627 1.667 23.367-13.157zm-363.187 6.173c5.182-10.675 23.451-3.53 23.451-3.53s9.108 22.162 12.76 23.349c3.652 1.184-4.099-20.475-4.099-20.475 7.381.684 24.156 13.135 24.156 13.135s-5.545 22.759-1.715 23.007c3.831.247 3.885-20.402 3.885-20.402 6.613 3.454 11.596 12.916 11.596 12.916 5.638 14.935-13.772 21.425-13.772 21.425s-1.752 7.93 1.418 18.015c0 0 .786 1.9 1.366 4.987l-1.911-.365a18.645 18.645 0 00-.235-1.588c0-.004 0-.005-.002-.009-.001-.008-.003-.015-.003-.023-.075-.322-.182-.78-.319-1.337v-.002c0-.002-.002-.002 0-.002-.367-1.26-.599-2.183-.733-2.842v-.005c-1.064-3.937-2.694-9.112-4.189-10.417 0 0 .269-.259.577-.801l-.577.801c-4.613 6.409-21.201 4.446-29.962.824-8.761-3.621-4.296-5.441 1.412-8.688 5.706-3.247 15.783-.173 19.136-1.231 3.352-1.059-.777-3.552-6.945-4.247-6.168-.695-10.368 4.819-20.366 3.877-9.999-.943-13.953-20.901-13.953-20.901 6.378 3.409 19.251 1.985 20.164-.27.914-2.256-17.133-5.469-19.805-6.71-2.678-1.249-6.517-7.816-1.335-18.491z" fill="#CDE0FB"/><path d="M461.56 161.368H253.211v280.78H461.56v-280.78z" fill="#ABDDDA"/><path d="M451.629 170.467H265.428V429.55h186.201V170.467z" fill="#fff"/><path d="M320.556 161.368v9.512c0 5.252 4.241 9.511 9.472 9.511h50.885c5.233 0 9.473-4.259 9.473-9.511v-9.512h-69.83z" fill="#F99746"/><path d="M305.137 216.893h-2.643v-12.279h2.643v12.279zm14.69.001h-2.643l-5.147-8.08v8.08h-2.643v-12.28h2.643l5.156 8.097v-8.097h2.634v12.28zm10.768-3.221a1.6 1.6 0 00-.097-.578 1.118 1.118 0 00-.376-.476 3.448 3.448 0 00-.766-.43c-.326-.141-.747-.29-1.265-.446a15.914 15.914 0 01-1.662-.607 6.169 6.169 0 01-1.367-.796 3.629 3.629 0 01-.925-1.059c-.228-.399-.34-.866-.34-1.399 0-.512.116-.98.347-1.405.233-.424.558-.786.978-1.083.421-.298.92-.529 1.499-.695a6.894 6.894 0 011.907-.249c.712 0 1.358.094 1.94.283a4.505 4.505 0 011.489.789c.411.337.728.738.952 1.202.223.463.334.971.334 1.521h-2.644c0-.258-.043-.497-.127-.717a1.451 1.451 0 00-.393-.565 1.841 1.841 0 00-.661-.367 3.003 3.003 0 00-.935-.13c-.347 0-.648.035-.903.109a1.904 1.904 0 00-.635.303c-.167.13-.292.281-.379.456a1.27 1.27 0 00-.128.557c0 .405.216.744.648 1.017.432.273 1.065.528 1.9.763a12.8 12.8 0 011.846.691 5.55 5.55 0 011.331.861c.355.32.625.68.808 1.079.182.399.272.851.272 1.358 0 .541-.111 1.021-.331 1.443a3.01 3.01 0 01-.938 1.068c-.406.29-.894.512-1.469.666a7.33 7.33 0 01-1.917.232c-.422 0-.846-.036-1.269-.105a6.362 6.362 0 01-1.211-.324 5.418 5.418 0 01-1.07-.548 3.916 3.916 0 01-.86-.776 3.428 3.428 0 01-.573-1.017 3.652 3.652 0 01-.206-1.26h2.653c0 .371.062.685.186.945.123.258.294.467.516.629.22.16.486.277.798.35.312.074.657.11 1.04.11.34 0 .638-.036.89-.106a1.84 1.84 0 00.625-.29 1.14 1.14 0 00.366-.442c.081-.181.122-.366.122-.562zm15.958-9.057v8.104c0 .708-.124 1.334-.37 1.876a3.802 3.802 0 01-1.023 1.362 4.44 4.44 0 01-1.557.827 6.707 6.707 0 01-1.969.278 6.685 6.685 0 01-1.979-.278 4.407 4.407 0 01-1.557-.827 3.776 3.776 0 01-1.017-1.362c-.244-.542-.366-1.168-.366-1.876v-8.104h2.643v8.104c0 .804.201 1.39.603 1.759.402.369.959.552 1.671.552.717 0 1.273-.184 1.669-.552.396-.369.595-.955.595-1.759v-8.104h2.657zm8.723 7.784h-2.106v4.496h-2.644v-12.28h4.767c.74 0 1.405.079 1.992.241.588.16 1.084.396 1.489.708.406.313.718.699.935 1.16.218.462.327.995.327 1.603 0 .45-.052.853-.159 1.211a3.18 3.18 0 01-.459.953 3.284 3.284 0 01-.722.729 4.784 4.784 0 01-.952.541l2.777 5.017v.119h-2.838l-2.407-4.498zm-2.104-2.049h2.133c.347 0 .649-.043.912-.13a1.77 1.77 0 00.652-.371c.172-.16.304-.352.392-.573.088-.222.133-.47.133-.745 0-.579-.172-1.034-.516-1.366-.344-.331-.871-.497-1.581-.497h-2.124v3.682h-.001zm17.923 4.014h-4.636l-.88 2.529h-2.811l4.777-12.28h2.45l4.803 12.28h-2.811l-.892-2.529zm-3.92-2.05h3.209l-1.613-4.595-1.596 4.595zm21.061 4.579h-2.644l-5.146-8.08v8.08h-2.644v-12.28h2.644l5.155 8.097v-8.097h2.637v12.28h-.002zm14.187-4.089a4.842 4.842 0 01-.441 1.72 3.977 3.977 0 01-1.024 1.344 4.713 4.713 0 01-1.581.878c-.619.211-1.325.316-2.119.316-.823 0-1.563-.135-2.218-.408a4.511 4.511 0 01-1.665-1.177c-.457-.513-.806-1.132-1.05-1.859-.244-.729-.366-1.545-.366-2.451v-.809c0-.906.126-1.724.379-2.455.252-.73.61-1.352 1.07-1.864a4.647 4.647 0 011.679-1.181c.657-.275 1.393-.412 2.202-.412.8 0 1.506.107 2.12.323a4.599 4.599 0 011.564.903 4.1 4.1 0 011.005 1.374c.24.532.394 1.11.458 1.733h-2.644a3.664 3.664 0 00-.199-.97 1.888 1.888 0 00-.445-.708 1.88 1.88 0 00-.749-.435c-.306-.098-.676-.147-1.111-.147-.894 0-1.559.311-1.996.932-.438.622-.657 1.584-.657 2.89v.826c0 .635.048 1.193.144 1.671.096.478.25.878.458 1.198.209.32.479.561.811.721.333.16.733.241 1.204.241.417 0 .777-.045 1.08-.135.302-.091.555-.226.758-.409.203-.183.361-.413.471-.688a3.31 3.31 0 00.213-.962h2.649zm11.262-1.232h-5.077v3.289h5.957v2.032h-8.601v-12.28h8.584v2.049h-5.94v2.927h5.077v1.983z" fill="#ABDDDA"/><path d="M365.776 415.249c-2.954.96-5.836 1.461-8.1 1.271-3.453-.288-5.398-2.104-5.475-5.111-.062-2.387.926-4.477 2.861-6.17a19.357 19.357 0 01-.047-.49c-.127-1.682.231-2.801 1.065-3.322 1.348-.844 3.351.31 3.436.359l-.449.769c-.449-.262-1.782-.838-2.519-.373-.637.399-.712 1.501-.658 2.396 1.576-1.144 3.632-2.078 6.14-2.756 1.853-.505 3.919-.84 5.785-.991.009-.209.026-.397.051-.55.06-.412.204-.896.608-.992.154-.034.451-.03.715.375.169.26.256.633.273 1.081a18.15 18.15 0 011.768.036l.015-.034a10.237 10.237 0 01.137-3.098c.226-1.031.594-1.552 1.11-1.601.31-.029.58.139.702.437.289.698-.253 2.585-1.036 4.395l.002.01c.736.124 1.235.329 1.391.614.118.215.133.546-.178.834-.594.548-1.069.411-1.298.279-.193-.111-.351-.301-.475-.546-.593 1.177-1.241 2.184-1.748 2.61-.467.396-.879.237-1.033.151a.942.942 0 01-.225-.181c-.203.493-.43.972-.676 1.401-.927 1.633-1.973 2.475-3.023 2.424a1.712 1.712 0 01-1.132-.503c-.58 1.26-1.31 2.46-2.033 3.356-.738.912-1.679 1.247-2.65.942-1.719-.538-3.276-3.036-3.86-5.995-1.47 1.443-2.185 3.151-2.137 5.11.066 2.565 1.636 3.995 4.662 4.247 7.642.638 21.041-6.488 22.055-11.732-.823 4.264-7.18 9.124-14.024 11.348zm-9.775-9.654c.466 3.12 2.024 5.414 3.344 5.829.62.194 1.191-.027 1.696-.654.86-1.066 1.603-2.381 2.136-3.663a5.367 5.367 0 01-.368-1.162c-.214-1.028-.249-2.441.004-3.409-1.427.354-2.858.832-4.183 1.46-1.014.482-1.891 1.015-2.629 1.599zm8.158 1.459c.19.29.443.518.781.533.673.028 1.48-.689 2.212-1.975a11.87 11.87 0 00.915-2.074c-.149-.558-.224-1.209-.25-1.808-.984.079-2.056.213-3.158.412.574 1.123.24 3.021-.5 4.912zm4.831-3.501c.139.418.263.499.263.501.496-.428 1.061-1.352 1.577-2.407-.42-.015-.895-.019-1.412-.006a10.65 10.65 0 01-.428 1.912zm-5.204-1.143c-.226.472-.387 1.983-.113 3.328.443-1.475.535-2.752.113-3.328zm8.732-.569c.002.002.004 0 .006.002-.004 0-.004 0-.006-.002zm-.131-4.565a5.383 5.383 0 00-.21.93 6.67 6.67 0 00.21-.93z" fill="#F99746"/><path d="M321.348 283.7h-33.676v-33.781h33.676V283.7zm-32.09-1.592h30.504v-30.599h-30.504v30.599z" fill="#ABDDDA"/><path d="M305.347 276.908c-.706 0-1.38-.314-1.834-.866l-10.392-12.61a2.392 2.392 0 01.317-3.36 2.374 2.374 0 013.349.319l8.241 10.001 14.91-25.102a2.376 2.376 0 013.262-.829 2.392 2.392 0 01.826 3.272l-16.638 28.009a2.384 2.384 0 01-2.041 1.166z" fill="#F99746"/><path d="M321.348 336.517h-33.676v-33.78h33.676v33.78zm-32.09-1.591h30.504v-30.598h-30.504v30.598z" fill="#ABDDDA"/><path d="M305.347 329.436c-.706 0-1.38-.315-1.834-.867l-10.392-12.609a2.392 2.392 0 01.317-3.36 2.373 2.373 0 013.349.319l8.241 10 14.91-25.1a2.375 2.375 0 013.262-.828 2.39 2.39 0 01.826 3.271l-16.638 28.01a2.38 2.38 0 01-2.041 1.164z" fill="#F99746"/><path d="M321.348 388.241h-33.676V354.46h33.676v33.781zm-32.09-1.59h30.504v-30.597h-30.504v30.597z" fill="#ABDDDA"/><path d="M305.347 380.664c-.706 0-1.38-.314-1.834-.866l-10.392-12.61a2.392 2.392 0 01.317-3.36 2.374 2.374 0 013.349.319l8.241 10.001 14.91-25.102a2.376 2.376 0 013.262-.829 2.391 2.391 0 01.826 3.271l-16.638 28.01a2.384 2.384 0 01-2.041 1.166z" fill="#F99746"/><path opacity=".5" d="M387.958 257.801h-43.913v3.296h43.913v-3.296zm37.311 0h-9.981v3.296h9.981v-3.296zm-37.311 14.721h-43.913v3.296h43.913v-3.296zm37.311 0h-14.88v3.296h14.88v-3.296zm0-7.361h-12.23v3.296h12.23v-3.296zm-36.553 0h-12.23v3.296h12.23v-3.296zm-17.495 0h-27.176v3.296h27.176v-3.296zm15.06 43.367h-42.236v3.296h42.236v-3.296zm1.677 14.721h-43.913v3.296h43.913v-3.296zm-2.223-7.36H374.37v3.295h11.365v-3.295zm-14.514 0h-27.176v3.295h27.176v-3.295zm16.737 44.807h-43.913v3.296h43.913v-3.296zm0 14.721h-43.913v3.296h43.913v-3.296zm5.509-7.36H374.37v3.296h19.097v-3.296zm-22.246 0h-27.176v3.296h27.176v-3.296z" fill="#ABDDDA"/><path d="M310.71 406.301h-23.038v2.339h23.038v-2.339zm28.374 0h-23.038v2.339h23.038v-2.339zm-19.463 5.189h-31.949v2.339h31.949v-2.339z" fill="#ABDDDA"/><path d="M439.986 330.519s1.709 5.275 1.56 6.482c-.146 1.208-1.218 5.33-1.984 6.385-.766 1.055-1.144-4.298-1.75-5.104-.607-.806-.124 2.015-.552 2.277-.428.262-1.318-2.075-1.701-2.898s.937-3.863.94-5.982c.004-2.119 3.487-1.16 3.487-1.16z" fill="#FFB27D"/><path d="M399.824 288.613c-.473-6.049 6.078-10.196 11.251-7.051.107.064.21.13.315.198 7.745 5 24.454 28.332 25.605 30.669 1.149 2.337 4.544 20.932 4.544 20.932s-4.195 1.539-6.157-.059c0 0-6.802-17.634-7.809-18.515-1.006-.882-27.21-15.63-27.433-21.16a142.499 142.499 0 00-.316-5.014z" fill="#233862"/><path d="M332.373 290.347l2.278 6.563 32.913-11.494-2.278-6.563-32.913 11.494z" fill="#F99746"/><path d="M325.86 296.302l8.791.61-2.277-6.564-6.514 5.954zm44.007-16.606l.719 2.075a2.448 2.448 0 01-1.502 3.115l-1.522.531-2.278-6.563 1.656-.579c1.2-.418 2.51.217 2.927 1.421z" fill="#F9DDBF"/><path d="M446.584 425.174s3.122 2.859 2.512 4.89c-.608 2.03-3.427 3.384-3.808 5.866-.381 2.483-1.904 3.837-3.274 3.837h-6.536s-1.008-1.746 1.429-2.273c2.437-.528 3.355-3.443 3.203-6.152-.152-2.708.229-6.318.229-6.318l5.178-1.204 1.067 1.354zm-38.307 7.395s.56 6.505-.811 7.181l-17.542-.036s0-2.03 2.818-2.482c2.818-.452 7.768-2.106 8.605-5.792.837-3.685 6.93 1.129 6.93 1.129z" fill="#233862"/><path d="M393.467 340.68s.925 11.402 2.012 25.109c1.478 18.619 3.256 41.489 3.433 45.823.304 7.524 1.524 19.557 1.524 19.557s2.894 2.859 8.682 1.654c0 0 5.16-17.179 6.632-35.355l.069-.899c1.371-18.504 3.502-57.467 3.502-57.467l-25.854 1.578z" fill="#F99746"/><path d="M393.467 340.68s.925 11.402 2.012 25.109l20.271 31.679.069-.899c1.371-18.504 3.502-57.467 3.502-57.467l-25.854 1.578z" fill="#EF7E29"/><path d="M397.691 342.034s16.679 41.295 27.644 60.702c10.967 19.406 14.394 24.823 14.394 24.823s6.282-2.483 6.853-4.176c0 0-4.193-37.464-11.538-46.599-4.149-5.16-9.024-20.647-9.253-26.064-.229-5.417-1.485-16.135-1.485-16.135l-26.615 7.449z" fill="#F99746"/><path d="M412.074 280.087s-11.174 5.686-17.719 3.79c0 0 1.56-2.059 4.333-3.622-.251-1.305-.448-2.439-.567-3.4-.319-2.218-.343-3.478-.343-3.478l4.284-3.52 4.063-3.37c-.144 9.248 5.949 13.6 5.949 13.6z" fill="#FFB27D"/><path d="M423.172 337.855c-4.512 2.738-8.783 4.799-13.781 5.955-5.896 1.403-13.144.989-15.568 1.36a1.009 1.009 0 01-.707-.179c-.19-.098-1.26-7.311-2.332-16.418-.047-.365-.098-.736-.119-1.107l-.015-.123a347.448 347.448 0 01-1.098-11.046 250.61 250.61 0 01-.618-8.509c-.186-3.388-.263-6.503-.186-9.065.034-1.171.102-2.222.207-3.135.638-5.319 3.167-9.12 5.55-11.949l1.975-2.254c2.291.145 4.63-.288 6.837-1.75 2.412-1.593 5.016-3.307 5.508-3.021 3.699 2.031 6.709 7.289 8.861 14.235 1.233 3.998 2.18 8.536 2.784 13.34a95.6 95.6 0 01.487 4.543c.024.282.045.563.067.842.289 4.164.764 8.066 1.29 11.551.708 4.7 1.512 8.637 2.08 11.409.286 1.411.504 2.503.633 3.285.115.68-1.248 1.655-1.855 2.036z" fill="#2B478B"/><path d="M406.268 270.021s-2.749 5.269-8.149 6.836c-.319-2.218-.343-3.478-.343-3.478l4.284-3.52 4.208.162z" fill="#ED985F"/><path d="M395.787 273.266s10.798 1.552 11.677-5.106c.879-6.658 2.865-10.941-3.992-12.212-6.857-1.273-8.535 1.096-9.374 3.247-.842 2.153-1.097 13.496 1.689 14.071z" fill="#FFB27D"/><path d="M411.118 255c.096-.114.319-.209.82-.246 0 0-.405-.243-.942-.247-.118-.697-.515-1.929-1.72-2.205 0 0 .652.331.751 1.073-1.418-1.405-4.418-2.388-12.653-1.571-10.854 1.078-7.133 7.988-5.71 8.792 1.423.804 4.921-1.548 7.548-1.392 2.627.156 3.2 3.948 4.101 4.451.899.504.531-.411 1.725-.982 1.193-.568 1.347 1.43 1.025 2.737-.321 1.307 1.365 2.991 1.365 2.991l1.636-1.838c1.635-1.839 3.058-9.517 2.268-11.131-.073-.142-.143-.287-.214-.432z" fill="#2C3A64"/><path d="M407.689 299.315s-9.104 6.948-18.755 8.471c-.186-3.388-.263-6.503-.186-9.064l18.941.593z" fill="#233862"/><path d="M351.777 290.348c-.143-.154-2-6.381-5.211-5.925-2.095.296-5.518 1.512-4.609 4.281.357 1.088 6.74 4.838 6.74 4.838l3.08-3.194z" fill="#FFB27D"/><path d="M408.814 285.888c5.192 3.115 4.771 10.875-.781 13.283-.114.049-.229.098-.343.144-8.547 3.439-37.188 3.599-39.753 3.186-2.565-.412-19.645-8.4-19.645-8.4s1.177-4.322 3.61-5.002c0 0 18.273 4.645 19.573 4.332 1.299-.313 28.456-13.206 33.081-10.187 1.222.798 2.719 1.719 4.258 2.644z" fill="#2B478B"/><path d="M526.589 444.316H16.029c-.4 0-.73-.33-.73-.731v-.684c0-.401.328-.73.73-.73h510.56c.4 0 .729.327.729.73v.684a.735.735 0 01-.729.731z" fill="#2E3552"/><path d="M97.258 312.246a6.343 6.343 0 00-4.459-1.825 6.343 6.343 0 00-4.458 1.825l-21.228 21.001-5.231-5.169a6.346 6.346 0 00-4.463-1.831c-1.674 0-3.28.657-4.464 1.828a6.208 6.208 0 00-1.85 4.414 6.21 6.21 0 001.847 4.416l9.7 9.583a6.347 6.347 0 004.46 1.828 6.347 6.347 0 004.462-1.828l25.684-25.415a6.207 6.207 0 001.847-4.413 6.21 6.21 0 00-1.847-4.414z" fill="#6290DF"/><defs><linearGradient id="paint0_linear" x1="44553.9" y1="214501" x2="114686" y2="44170.8" gradientUnits="userSpaceOnUse"><stop stop-color="#DDE1EE"/><stop offset="1" stop-color="#75B9FF"/></linearGradient><linearGradient id="paint1_linear" x1="206.162" y1="248.103" x2="279.294" y2="115.613" gradientUnits="userSpaceOnUse"><stop stop-color="#D8E2F6"/><stop offset=".01" stop-color="#DAE3F6"/><stop offset=".12" stop-color="#EBF0FA"/><stop offset=".26" stop-color="#F6F9FD"/><stop offset=".46" stop-color="#FDFEFF"/><stop offset="1" stop-color="#fff"/></linearGradient><linearGradient id="paint2_linear" x1="67.159" y1="182.455" x2="77.906" y2="162.599" gradientUnits="userSpaceOnUse"><stop stop-color="#FFB58E"/><stop offset=".33" stop-color="#FEB38B"/><stop offset=".59" stop-color="#FCAD81"/><stop offset=".83" stop-color="#F9A370"/><stop offset="1" stop-color="#F5985F"/></linearGradient><linearGradient id="paint3_linear" x1="8562.2" y1="11745.5" x2="8888.89" y2="13007.4" gradientUnits="userSpaceOnUse"><stop stop-color="#FFB58E"/><stop offset=".33" stop-color="#FEB38B"/><stop offset=".59" stop-color="#FCAD81"/><stop offset=".83" stop-color="#F9A370"/><stop offset="1" stop-color="#F5985F"/></linearGradient><linearGradient id="paint4_linear" x1="82.611" y1="120.161" x2="60.71" y2="149.204" gradientUnits="userSpaceOnUse"><stop stop-color="#B62C01"/><stop offset="1" stop-color="#7C0C0A"/></linearGradient><linearGradient id="paint5_linear" x1="2394.54" y1="2419.9" x2="2432.32" y2="2615.64" gradientUnits="userSpaceOnUse"><stop stop-color="#FFB58E"/><stop offset=".33" stop-color="#FEB38B"/><stop offset=".59" stop-color="#FCAD81"/><stop offset=".83" stop-color="#F9A370"/><stop offset="1" stop-color="#F5985F"/></linearGradient><linearGradient id="paint6_linear" x1="25.543" y1="224.696" x2="41.599" y2="170.695" gradientUnits="userSpaceOnUse"><stop stop-color="#38D1A6"/><stop offset="1" stop-color="#32CAB5"/></linearGradient><linearGradient id="paint7_linear" x1="7317.78" y1="9064.53" x2="8250.7" y2="9064.53" gradientUnits="userSpaceOnUse"><stop stop-color="#FF8D02"/><stop offset="1" stop-color="#FFC757"/></linearGradient><linearGradient id="paint8_linear" x1="14135" y1="46136.6" x2="15912.8" y2="46136.6" gradientUnits="userSpaceOnUse"><stop stop-color="#D5E0F5"/><stop offset="1" stop-color="#fff"/></linearGradient></defs></svg>