<svg width="55" height="54" fill="none" xmlns="http://www.w3.org/2000/svg"><path d="M54.282 44.887l-1.616-14.94A15.755 15.755 0 0042.35 16.82a2.66 2.66 0 00-.34-3.08 2.662 2.662 0 00.418-2.934 4.452 4.452 0 002.93-4.179V3.071A2.67 2.67 0 0042.691.403h-3.556a4.442 4.442 0 00-3.557 1.782 4.444 4.444 0 00-8.002 2.664v1.778a4.453 4.453 0 002.93 4.18 2.663 2.663 0 00.419 2.933 2.66 2.66 0 00-.34 3.08 15.754 15.754 0 00-10.317 13.127l-.256 2.368 1.768.191.256-2.368a13.977 13.977 0 0110.107-11.953h8.649a13.978 13.978 0 0110.106 11.953l1.616 14.94a6.224 6.224 0 01-6.188 6.893h-4.524v1.778h4.524a8.003 8.003 0 007.956-8.862zm-22.26-32.925a.89.89 0 01.889-.89h7.113a.89.89 0 010 1.779H32.91a.89.89 0 01-.89-.89zm7.113-9.78h1.042a2.653 2.653 0 00-.153.889v1.778a1.778 1.778 0 01-3.557 0 2.67 2.67 0 012.668-2.667zm-9.78 4.445V4.849a2.667 2.667 0 115.334 0 3.557 3.557 0 007.113 0V3.07a.889.889 0 111.778 0v3.556a2.67 2.67 0 01-2.667 2.667h-4.446a3.56 3.56 0 01-3.556-3.556v-.89h-1.778v.89a5.31 5.31 0 001.362 3.556h-.473a2.67 2.67 0 01-2.667-2.667zm3.556 9.78a.89.89 0 010-1.778h7.113a.89.89 0 010 1.778H32.91z" fill="#fff"/><path d="M8.767 26.223l3.297 1.648a.888.888 0 00.795 0l3.297-1.648a14.226 14.226 0 007.864-12.724V3.96a.89.89 0 00-1.458-.682 7.442 7.442 0 01-9.531 0 .89.89 0 00-1.139 0 7.442 7.442 0 01-9.53 0 .889.889 0 00-1.459.683v9.54a14.226 14.226 0 007.864 12.723zM12.462 5.08a9.21 9.21 0 006.223 1.656v6.762a8.843 8.843 0 01-4.914 7.953l-1.31.654-1.308-.654a8.843 8.843 0 01-4.915-7.953V6.737a9.21 9.21 0 006.224-1.656zm-9.78.558c.564.311 1.16.562 1.778.748V13.5a10.611 10.611 0 005.897 9.543l1.707.853a.89.89 0 00.795 0l1.707-.853a10.61 10.61 0 005.897-9.543V6.387a9.177 9.177 0 001.779-.748v7.86a12.448 12.448 0 01-6.881 11.133l-2.9 1.45-2.899-1.45A12.448 12.448 0 012.682 13.5V5.64zM39.135 43.08h-4.446v-2.667h2.667a.889.889 0 00.89-.89v-4.445a.889.889 0 00-.89-.889h-8.89a.889.889 0 00-.89.89v3.556h-1.778v-3.557a.89.89 0 00-.889-.889H5.349a.889.889 0 00-.89.89v8H1.793a.889.889 0 00-.889.89v8.891a.89.89 0 00.89.89h37.342a.889.889 0 00.889-.89v-8.891a.889.889 0 00-.89-.89zm-.89 4.445h-7.112v-2.667h7.113v2.667zm-24.894-2.667v7.113H9.794v-7.113h3.557zm0-1.778v-7.113h3.556v7.113h-3.556zm1.778 1.778h5.335v7.113h-5.335v-7.113zm7.113 0h7.113v2.667h-7.113v-2.667zm7.113-8.89h7.112v2.666h-7.112v-2.667zm3.556 4.445v2.667h-7.113v-2.667h7.113zM24.02 43.08h-5.335v-7.113h5.335v7.113zM6.238 35.967h5.334v7.113H6.239v-7.113zm-3.556 8.891h5.334v7.113H2.682v-7.113zm19.56 4.446h7.113v2.667h-7.113v-2.667zm8.89 2.667v-2.667h7.113v2.667h-7.112z" fill="#fff"/></svg>