<svg width="55" height="55" fill="none" xmlns="http://www.w3.org/2000/svg"><g clip-path="url(#clip0)" fill="#fff"><path d="M52.834 35.19a.901.901 0 00-.172.016h.004c-.24.046-.482.08-.724.106V12.527a2.879 2.879 0 00-2.876-2.876h-14.12V6.18a5.475 5.475 0 00-5.47-5.473h-6.044a5.475 5.475 0 00-5.478 5.472V9.65H4.736a2.879 2.879 0 00-2.88 2.876v30.021a2.879 2.879 0 002.88 2.876h2.486a2.683 2.683 0 105.366 0h25.041v.614a7.526 7.526 0 001.127 3.947 7.748 7.748 0 003.64 3.09l2.936 1.223c.22.092.468.092.689 0l2.937-1.224a7.748 7.748 0 003.65-3.089 7.524 7.524 0 001.12-3.947v-9.954c0-.494-.4-.895-.895-.895zM19.742 6.181a3.661 3.661 0 011.08-2.606 3.714 3.714 0 012.609-1.08h6.044c.977.003 1.915.39 2.608 1.08a3.662 3.662 0 011.074 2.606V9.65h-1.789V6.706a2.421 2.421 0 00-2.415-2.421h-4.998a2.421 2.421 0 00-2.425 2.417v2.949h-1.788V6.18zm9.837.524V9.65h-6.26V6.706c0-.35.283-.632.632-.632h5.002a.632.632 0 01.626.632zM3.645 12.527c0-.601.488-1.088 1.089-1.087h4.277v7.678l-5.366 5.366V12.527zm0 14.486l6.891-6.891 2.946-2.946 2.292 2.292-12.13 11.371v-3.826zm1.09 16.622a1.088 1.088 0 01-1.09-1.085v-9.26l5.366-5.03v15.375H4.736zm5.17 2.684a.894.894 0 01-.894-.895h1.788c0 .494-.4.895-.894.895zm28.797-11.114a.894.894 0 00-1.073.879v7.551H10.8V26.643c0-.018-.009-.032-.01-.05l6.882-6.453a.894.894 0 00.021-1.284l-3.577-3.577a.894.894 0 00-1.265 0l-2.05 2.05v-5.89h32.195v1.86a6.26 6.26 0 100 12.378v9.284a8.77 8.77 0 01-4.292.245zm7.87-15.716a4.472 4.472 0 11-8.943 0 4.472 4.472 0 018.944 0zm-1.788 32.643l-1.7-.71a5.973 5.973 0 01-2.806-2.378h.005a5.734 5.734 0 01-.865-3.006v-8.925a10.583 10.583 0 005.366-.926v15.945zm1.28-18.24a.872.872 0 00-.079-.032.892.892 0 00-.297-.062h-.01a.895.895 0 00-.378.094.695.695 0 00-.066.027l-.447.258v-9.04a6.247 6.247 0 000-11.296V11.44h4.278c.6.002 1.085.488 1.085 1.087v22.796a8.717 8.717 0 01-3.572-1.142l-.447-.26a.686.686 0 00-.066-.028zm5.875 12.146a5.723 5.723 0 01-.858 3.006 5.967 5.967 0 01-2.804 2.378l-1.704.71V36.187a10.56 10.56 0 005.366.926v8.925z"/><path d="M24.176 35.632l-3.797-3.794a.92.92 0 00-1.265 0l-3.795 3.794a.894.894 0 000 1.265l3.798 3.794a.894.894 0 001.264 0l3.795-3.794a.894.894 0 000-1.265zm-4.433 3.162l-2.53-2.53 2.53-2.53 2.53 2.53-2.53 2.53zM33.79 26.905l-6.257-6.26a.894.894 0 00-1.264 0l-5.366 5.366a.894.894 0 000 1.265l6.26 6.26a.895.895 0 00.629.262h5.366c.494 0 .894-.4.894-.895v-5.365a.894.894 0 00-.262-.633zm-1.527 5.104h-4.097l-5.367-5.366 4.098-4.101 5.366 5.366v4.101z"/></g><defs><clipPath id="clip0"><path fill="#fff" transform="translate(.962 .708)" d="M0 0h53.659v53.659H0z"/></clipPath></defs></svg>