<svg width="58" height="45" fill="none" xmlns="http://www.w3.org/2000/svg"><path d="M57.784 20.903L56.413 16.2c-.11-.352-.577-.759-1.15-.547-1.764.502-3.611-.507-4.119-2.248-.507-1.74.515-3.564 2.279-4.065.375-.082.825-.467.678-1.066l-1.189-4.078a4.742 4.742 0 00-2.301-2.85 4.85 4.85 0 00-3.67-.41L4.047 13.125a4.782 4.782 0 00-2.887 2.272 4.676 4.676 0 00-.414 3.621c.669 1.82 1.536 5.397 1.23 7.319 0 .457.37.83.834.841a3.337 3.337 0 013.076 2.24 3.285 3.285 0 01-1.075.568.84.84 0 00-.565 1.037l.58 1.987a3.32 3.32 0 01-2.016.733.847.847 0 00-.833.842v4.892c0 2.626 2.164 4.762 4.824 4.762h10.798a.847.847 0 00.853-.841.847.847 0 00-.853-.842H6.8c-1.72 0-3.119-1.381-3.119-3.078v-4.139a5.006 5.006 0 001.642-.62l.294 1.005a4.742 4.742 0 002.3 2.85c1.02.525 2.269.816 3.67.41L51.085 27.76a4.893 4.893 0 00-.809 2.699c0 2.486 1.86 4.552 4.28 4.912v4.105c0 1.697-1.4 3.078-3.119 3.078H21.685a.847.847 0 00-.852.842c0 .464.381.841.852.841h29.752c2.66 0 4.825-2.136 4.825-4.761v-4.893c-.008-.368-.342-.887-.952-.84-1.835 0-3.328-1.473-3.328-3.284 0-1.812 1.493-3.285 3.328-3.285.384.024.924-.224.951-.84v-.476a4.76 4.76 0 001.109-1.334c.623-1.114.77-2.4.414-3.622zm-54.103 4.68v-2.01c2.253-.083 3.98 2.119 3.307 4.244a5.075 5.075 0 00-3.307-2.234zm27.49.928l3.062-.87 1.388 4.762-3.061.87-1.389-4.762zm24.706-2.801c-.419.748-1.073 1.197-1.866 1.468l-12.756 3.624-.094-.324a.855.855 0 00-1.055-.576.84.84 0 00-.584 1.042l.095.323-2.357.67-1.624-5.57a.844.844 0 00-.407-.504.863.863 0 00-.648-.072l-4.7 1.335a.85.85 0 00-.511.401.831.831 0 00-.073.64l1.624 5.57-19.806 5.628c-.8.227-1.643.133-2.372-.265a3.066 3.066 0 01-1.488-1.842l-1.16-3.977c2.048-1.023 3.156-3.392 2.607-5.598-.605-2.427-2.87-3.915-5.34-3.778l-.978-3.353a3.023 3.023 0 01.267-2.342 3.091 3.091 0 011.867-1.468L33.02 6.645l.094.323a.852.852 0 001.055.576.84.84 0 00.584-1.041l-.095-.324 12.755-3.623a3.135 3.135 0 012.373.264 3.066 3.066 0 011.487 1.842l.969 3.32c-2.224 1.007-3.433 3.5-2.736 5.89.696 2.39 3.062 3.867 5.489 3.552l1.15 3.945c.23.79.136 1.621-.268 2.34z" fill="#fff"/><path d="M36.511 12.533l-.626-2.146a.855.855 0 00-1.055-.576.84.84 0 00-.584 1.041L34.872 13c.125.323.516.729 1.055.576a.84.84 0 00.584-1.042zm1.759 6.031l-.626-2.147a.855.855 0 00-1.055-.576.84.84 0 00-.584 1.042l.626 2.146c.125.324.516.73 1.055.576a.84.84 0 00.584-1.041zm1.133 3.884a.855.855 0 00-1.056-.576.84.84 0 00-.583 1.041l.625 2.147c.126.323.516.729 1.056.576a.84.84 0 00.584-1.042l-.626-2.146zM48.498 9.15a.831.831 0 00.073-.64l-.954-3.273a.855.855 0 00-1.055-.576l-8.578 2.437A.84.84 0 0037.4 8.14l.954 3.272c.174.322.355.707 1.055.576l8.578-2.437a.85.85 0 00.511-.401zm-8.74.988l-.483-1.655 6.939-1.971.482 1.654-6.939 1.972zm7.398 11.832l4.583-1.302a.84.84 0 00.583-1.042.855.855 0 00-1.055-.576l-4.583 1.302a.84.84 0 00.236 1.65.839.839 0 00.236-.032zm4.956-.02l-4.583 1.302a.84.84 0 00.236 1.65.84.84 0 00.236-.033l4.583-1.301a.84.84 0 00.584-1.042.855.855 0 00-1.056-.576zm-35.238 8.755l-6.463 1.836a.84.84 0 00.236 1.65c.078 0 .157-.01.236-.032l6.463-1.836a.84.84 0 00.583-1.042.855.855 0 00-1.055-.576zm32.91 10.033a.847.847 0 00.853-.842v-3.258a.847.847 0 00-.853-.842h-9.416a.847.847 0 00-.852.842v3.258c0 .465.381.842.852.842h9.416zm-8.563-3.259h7.71v1.576h-7.71v-1.576zm-5.028 1.461a.847.847 0 00.853-.842.847.847 0 00-.853-.841h-9.065a.847.847 0 00-.853.841c0 .465.382.842.853.842h9.065zm-9.049-21.451c-.337.095-1.198.375-2.341.755L19.93 13.69a.86.86 0 00-.822-.198l-2.586.735c-.409.125-.831.674-.459 1.296l3.282 4.56a2467.39 2467.39 0 00-6.369 2.171l-2.82-.722c-.584-.16-1.336.486-.95 1.239l2.157 3.644c.264.263.412.514 1.013.372l1.547-.524c.467-.106 3.537-.804 6.772-1.55l-.324 5.584c.069.406.184.982 1.088.857l2.585-.734a.847.847 0 00.59-.6l1.675-6.413a81.788 81.788 0 002.389-.59c1.926-.546 2.667-2.93 2.746-3.2a.835.835 0 00-.25-.858c-.212-.187-2.125-1.817-4.05-1.27zm-8.994-1.973l.96-.273 3.866 3.612c-.623.21-1.28.43-1.95.657l-2.876-3.996zm4.954 13.42l-.961.272.284-4.894 2.005-.466-1.328 5.087zm5.122-7.736c-3.064.802-14.223 3.3-14.814 3.457l-.929.314-.77-1.301 1.085.278c.806.03 1.053-.274 2.611-.744 2.67-.913 7.23-2.463 9.455-3.204 1.355-.452 2.388-.79 2.752-.893.634-.18 1.454.22 1.988.57-.262.576-.738 1.341-1.378 1.523z" fill="#fff"/></svg>