<svg width="51" height="51" fill="none" xmlns="http://www.w3.org/2000/svg"><path d="M9.488 29.772A2.926 2.926 0 008.05 32.29a2.93 2.93 0 002.926 2.925 2.93 2.93 0 002.758-1.95h7.58a2.929 2.929 0 012.925 2.926 2.929 2.929 0 01-2.926 2.925H9.61a4.882 4.882 0 00-4.876 4.877 4.882 4.882 0 004.876 4.876h9.753a.975.975 0 100-1.95H9.61a2.929 2.929 0 01-2.925-2.926 2.93 2.93 0 012.925-2.926h11.703a4.882 4.882 0 004.877-4.876 4.882 4.882 0 00-4.877-4.877h-7.58a2.94 2.94 0 00-1.27-1.542l7.45-12.222a10.682 10.682 0 001.79-5.936C21.703 5.7 16.891.886 10.976.886 5.06.886.248 5.7.248 11.614c0 2.123.62 4.175 1.791 5.936l7.449 12.222zm1.488 3.493a.976.976 0 010-1.95.976.976 0 010 1.95zm0-30.428c4.84 0 8.777 3.937 8.777 8.777a8.737 8.737 0 01-1.496 4.904l-7.281 11.947s-7.296-11.97-7.304-11.98a8.737 8.737 0 01-1.474-4.87c0-4.84 3.938-8.778 8.778-8.778z" fill="#fff"/><path d="M10.976 16.49a4.882 4.882 0 004.876-4.876 4.882 4.882 0 00-4.876-4.876 4.882 4.882 0 00-4.877 4.876 4.882 4.882 0 004.877 4.877zm0-7.801a2.93 2.93 0 012.925 2.925 2.929 2.929 0 01-2.925 2.926 2.929 2.929 0 01-2.926-2.926 2.929 2.929 0 012.926-2.925zm28.477 8.387c-5.915 0-10.728 4.812-10.728 10.727 0 2.126.621 4.182 1.797 5.945l7.421 11.64a2.94 2.94 0 00-1.248 1.53H28.14a.975.975 0 100 1.95h8.555a2.93 2.93 0 002.758 1.951 2.93 2.93 0 002.926-2.925 2.927 2.927 0 00-1.416-2.505l7.421-11.641a10.681 10.681 0 001.797-5.945c0-5.915-4.813-10.727-10.728-10.727zm0 31.793a.976.976 0 010-1.95.976.976 0 010 1.95zm7.303-16.196L39.453 44.13 32.15 32.673a8.737 8.737 0 01-1.474-4.87c0-4.84 3.937-8.777 8.777-8.777s8.777 3.938 8.777 8.777c0 1.743-.51 3.427-1.474 4.87z" fill="#fff"/><path d="M39.453 22.927a4.882 4.882 0 00-4.876 4.876 4.882 4.882 0 004.876 4.877 4.882 4.882 0 004.876-4.877 4.882 4.882 0 00-4.876-4.876zm0 7.802a2.93 2.93 0 01-2.926-2.926 2.93 2.93 0 012.926-2.925 2.93 2.93 0 012.926 2.925 2.93 2.93 0 01-2.926 2.926zm-15.702 18.14a.975.975 0 100-1.95.975.975 0 000 1.95z" fill="#fff"/></svg>