<svg width="100" height="100" fill="none" xmlns="http://www.w3.org/2000/svg"><path d="M99.913 83.388L96.89 55.38a29.557 29.557 0 00-6.133-15.075 29.492 29.492 0 00-13.177-9.531A4.992 4.992 0 0076.942 25a4.994 4.994 0 00.783-5.499A8.336 8.336 0 0081.7 16.45a8.355 8.355 0 001.51-4.782V5a5.01 5.01 0 00-1.463-3.534A4.995 4.995 0 0078.216 0H71.56a8.304 8.304 0 00-6.657 3.34 8.306 8.306 0 00-13.408.12 8.34 8.34 0 00-1.57 4.873v3.334a8.356 8.356 0 001.51 4.782 8.337 8.337 0 003.976 3.052A4.998 4.998 0 0056.194 25a4.99 4.99 0 00-.638 5.774 29.492 29.492 0 00-13.176 9.531 29.557 29.557 0 00-6.133 15.075l-.48 4.44 3.31.36.48-4.441a26.222 26.222 0 016.033-14.103 26.161 26.161 0 0112.884-8.303h16.19a26.161 26.161 0 0112.883 8.303 26.223 26.223 0 016.033 14.103l3.024 28.007a11.683 11.683 0 01-2.913 9.048 11.65 11.65 0 01-8.67 3.873h-8.467V100h8.468a14.958 14.958 0 0011.145-4.98 15.007 15.007 0 003.746-11.632zM58.247 21.667A1.67 1.67 0 0159.911 20h13.314a1.663 1.663 0 011.664 1.667 1.668 1.668 0 01-1.664 1.666H59.912a1.665 1.665 0 01-1.665-1.666zM71.561 3.333h1.95A4.98 4.98 0 0073.225 5v3.333c0 .884-.35 1.732-.975 2.357a3.326 3.326 0 01-5.682-2.357A5.01 5.01 0 0168.032 4.8a4.995 4.995 0 013.529-1.466zm-18.306 8.334V8.333c0-1.326.526-2.598 1.462-3.535a4.989 4.989 0 017.06 0 5.004 5.004 0 011.463 3.535c0 1.768.701 3.464 1.95 4.714a6.652 6.652 0 009.414 0 6.672 6.672 0 001.95-4.714V5a1.668 1.668 0 011.664-1.667A1.663 1.663 0 0179.882 5v6.667a5.01 5.01 0 01-1.464 3.534 4.995 4.995 0 01-3.529 1.466h-8.32a6.66 6.66 0 01-4.706-1.955A6.68 6.68 0 0159.911 10V8.333h-3.328V10a9.967 9.967 0 002.55 6.667h-.886A4.995 4.995 0 0154.72 15.2a5.009 5.009 0 01-1.464-3.534zM59.91 30a1.663 1.663 0 01-1.664-1.667 1.668 1.668 0 011.664-1.666h13.314a1.663 1.663 0 011.664 1.666A1.668 1.668 0 0173.225 30H59.912z" fill="#fff"/><path d="M14.72 48.4l6.17 3.09a1.661 1.661 0 001.49 0l6.17-3.09a26.643 26.643 0 0010.743-9.832 26.696 26.696 0 003.976-14.02V6.667a1.669 1.669 0 00-.958-1.509 1.662 1.662 0 00-1.771.229 13.918 13.918 0 01-17.84 0 1.663 1.663 0 00-2.13 0 13.918 13.918 0 01-17.84 0A1.663 1.663 0 000 6.666V24.55c0 4.952 1.377 9.807 3.977 14.02a26.643 26.643 0 0010.742 9.83zm6.915-39.632a17.22 17.22 0 0011.65 3.104v12.677a16.594 16.594 0 01-2.473 8.77 16.56 16.56 0 01-6.727 6.137l-2.45 1.227-2.45-1.227a16.56 16.56 0 01-6.728-6.137 16.594 16.594 0 01-2.472-8.77V11.872c4.13.403 8.266-.699 11.65-3.104zM3.328 9.815a17.166 17.166 0 003.329 1.402v13.332a19.913 19.913 0 002.966 10.525 19.873 19.873 0 008.073 7.363l3.194 1.6a1.661 1.661 0 001.49 0l3.193-1.6a19.872 19.872 0 008.074-7.363 19.913 19.913 0 002.966-10.525V11.217a17.166 17.166 0 003.328-1.402v14.734a23.36 23.36 0 01-3.48 12.267 23.313 23.313 0 01-9.4 8.603l-5.426 2.717-5.427-2.717a23.312 23.312 0 01-9.4-8.603 23.36 23.36 0 01-3.48-12.267V9.815zM71.561 80H63.24v-5h4.993a1.663 1.663 0 001.664-1.667V65a1.668 1.668 0 00-1.664-1.667H51.59A1.663 1.663 0 0049.926 65v6.667h-3.328V65a1.668 1.668 0 00-1.664-1.667H8.32A1.663 1.663 0 006.657 65v15H1.664A1.663 1.663 0 000 81.667v16.666A1.668 1.668 0 001.664 100h69.897a1.663 1.663 0 001.664-1.667V81.667A1.668 1.668 0 0071.561 80zm-1.664 8.333H56.583v-5h13.314v5zm-46.598-5v13.334h-6.657V83.333H23.3zm0-3.333V66.667h6.657V80h-6.657zm3.328 3.333h9.986v13.334h-9.986V83.333zm13.314 0h13.314v5H39.94v-5zm13.314-16.666h13.313v5H53.255v-5zM59.91 75v5H46.598v-5H59.91zm-16.64 5h-9.985V66.667h9.985V80zM9.985 66.667h9.986V80H9.985V66.667zM3.328 83.333h9.986v13.334H3.328V83.333zm36.613 8.334h13.314v5H39.94v-5zm16.642 5v-5h13.314v5H56.583z" fill="#fff"/></svg>